<?xml version="1.0" standalone="no"?>
<!DOCTYPE svg PUBLIC "-//W3C//DTD SVG 20010904//EN"
 "http://www.w3.org/TR/2001/REC-SVG-20010904/DTD/svg10.dtd">
<svg version="1.0" xmlns="http://www.w3.org/2000/svg"
 width="500.000000pt" height="500.000000pt" viewBox="0 0 500.000000 500.000000"
 preserveAspectRatio="xMidYMid meet">
<metadata>
Created by potrace 1.11, written by Peter Selinger 2001-2013
</metadata>
<g transform="translate(0.000000,500.000000) scale(0.100000,-0.100000)"
fill="#000000" stroke="none">
<path d="M2368 4985 c-2 -2 -34 -6 -73 -9 -38 -3 -83 -8 -100 -12 -16 -3 -46
-7 -65 -9 -19 -2 -35 -5 -35 -6 0 -1 -9 -3 -20 -4 -63 -7 -312 -80 -390 -115
-11 -4 -45 -19 -75 -32 -83 -35 -241 -117 -277 -144 -17 -13 -35 -24 -39 -24
-9 0 -197 -138 -254 -187 -306 -262 -547 -612 -686 -998 -4 -11 -8 -22 -9 -25
0 -3 -8 -27 -17 -55 -20 -58 -58 -208 -63 -245 -2 -14 -4 -25 -5 -25 -3 0 -10
-43 -14 -86 -2 -26 -5 -50 -8 -55 -20 -37 -15 -450 7 -609 13 -98 23 -146 69
-325 2 -8 16 -49 31 -90 15 -41 30 -86 35 -100 21 -68 107 -242 178 -360 46
-76 145 -217 166 -235 6 -5 24 -28 41 -50 45 -60 210 -221 306 -297 113 -91
119 -96 156 -118 18 -11 33 -25 33 -30 0 -6 4 -9 9 -5 5 3 16 -2 24 -10 9 -8
18 -15 22 -15 4 0 26 -14 50 -30 24 -17 50 -30 58 -30 8 0 22 -10 31 -23 9
-12 14 -16 10 -9 -5 12 -2 12 17 2 33 -18 33 -17 16 -34 -18 -19 -31 -8 -15
13 7 9 1 6 -11 -5 -24 -22 -21 -44 5 -44 16 0 19 -16 4 -25 -5 -3 -7 -12 -4
-19 4 -9 -2 -13 -19 -11 -31 4 -55 -10 -33 -18 8 -3 18 -2 21 3 4 6 12 10 18
10 7 -1 2 -9 -10 -19 -26 -22 -30 -33 -8 -25 8 4 15 1 15 -5 0 -6 -8 -11 -17
-11 -15 0 -14 -2 3 -16 18 -15 18 -15 -3 -9 -14 4 -23 2 -23 -5 0 -6 -5 -8
-12 -4 -9 5 -9 2 1 -9 7 -9 19 -17 25 -17 6 0 5 4 -3 9 -16 10 -4 18 26 15 12
0 20 3 17 7 -3 5 0 9 6 9 6 0 10 -8 8 -17 -2 -11 -11 -17 -23 -15 -17 2 -18 1
-4 -8 11 -6 15 -20 13 -42 -3 -22 -1 -28 5 -19 5 8 6 21 3 30 -5 14 -3 14 11
2 9 -7 17 -10 17 -6 0 4 -8 14 -17 21 -17 12 -17 13 -1 19 9 4 14 13 11 21 -4
10 0 12 11 8 9 -3 13 -10 10 -15 -3 -5 3 -6 13 -2 16 6 16 5 5 -10 -8 -9 -20
-13 -30 -10 -9 4 -3 -6 13 -21 18 -16 23 -26 13 -22 -23 7 -32 -9 -18 -31 10
-16 10 -16 6 2 -5 16 0 20 24 22 17 1 30 -2 30 -7 0 -6 -5 -9 -11 -7 -6 1 -14
-5 -16 -13 -4 -12 -3 -12 5 -2 5 8 13 13 18 12 19 -3 15 22 -5 27 -24 6 -26
14 -9 31 17 17 33 15 18 -3 -12 -15 -3 -21 24 -16 5 1 6 -5 2 -14 -5 -13 -2
-13 19 2 23 17 45 51 26 38 -5 -3 -12 -1 -15 4 -3 5 1 11 9 15 21 8 27 -8 21
-56 -4 -32 -3 -39 5 -25 8 13 14 15 30 7 11 -6 24 -8 29 -5 6 3 10 2 10 -4 0
-5 -4 -12 -10 -16 -11 -7 -2 -35 12 -35 6 0 6 6 -1 14 -10 11 -6 17 20 30 28
14 30 14 25 -1 -4 -8 -1 -22 5 -29 9 -11 14 -10 30 9 10 12 18 17 19 10 0 -6
-5 -15 -10 -18 -6 -3 -9 -16 -9 -28 1 -20 2 -21 6 -2 8 33 23 46 41 36 11 -6
26 -4 44 5 18 9 28 11 28 4 0 -6 -19 -20 -42 -30 -24 -11 -38 -20 -31 -20 7 0
23 5 37 11 31 15 57 -2 49 -31 -3 -11 0 -20 6 -20 6 0 8 7 4 17 -4 10 -2 14 4
10 6 -4 18 4 27 18 15 23 45 38 32 16 -4 -5 -3 -16 0 -25 5 -12 10 -13 25 -5
11 5 17 14 14 20 -4 5 1 9 9 9 21 0 20 -16 -2 -32 -17 -13 -17 -14 0 -30 10
-10 18 -14 18 -9 0 6 -5 13 -10 16 -6 4 -4 12 5 21 19 19 19 33 2 40 -8 3 -14
11 -14 19 0 22 12 18 27 -10 7 -13 17 -22 21 -19 12 7 38 -36 32 -55 -3 -12
-1 -11 7 2 9 14 9 22 1 30 -6 6 -11 16 -11 22 1 5 10 -1 20 -14 11 -13 20 -18
20 -12 0 6 7 11 17 11 14 0 14 -2 -2 -20 -10 -11 -15 -20 -11 -20 4 0 17 10
27 23 17 20 19 20 17 3 -2 -10 3 -21 11 -24 10 -3 12 0 8 12 -8 20 2 48 14 40
5 -3 6 1 4 8 -4 9 2 14 16 15 16 2 18 -1 10 -11 -6 -8 -8 -22 -4 -32 6 -17 5
-17 -10 -5 -11 9 -17 10 -17 2 0 -6 5 -11 12 -11 9 0 9 -3 0 -12 -7 -7 -12
-16 -12 -21 0 -5 9 1 20 14 24 29 26 18 4 -19 -11 -18 -12 -22 -2 -10 8 10 18
15 21 12 3 -3 4 9 2 27 l-5 34 31 -33 c20 -21 35 -30 41 -24 8 8 11 17 17 52
1 3 5 -1 10 -9 6 -10 5 -22 -5 -35 -8 -11 -14 -25 -14 -31 0 -5 9 5 20 22 22
36 35 41 44 17 5 -12 2 -15 -9 -10 -9 3 -13 2 -10 -4 3 -6 2 -10 -3 -10 -6 0
-12 -7 -16 -15 -4 -11 3 -9 24 6 24 19 27 25 18 42 -9 17 -8 19 7 14 9 -4 19
-7 21 -7 3 0 2 -4 -1 -10 -3 -5 -1 -10 5 -10 7 0 9 8 4 22 -6 20 -5 21 9 9 9
-7 14 -18 10 -24 -3 -5 -1 -7 4 -4 6 4 13 0 16 -8 7 -16 50 -12 55 5 2 6 7 8
11 6 4 -3 7 8 7 25 0 16 -3 29 -8 29 -8 0 -12 -15 -9 -37 2 -12 -16 -26 -36
-29 -7 -1 -13 2 -13 6 0 5 -9 18 -21 29 -13 11 -18 24 -14 32 6 8 4 10 -5 4
-8 -5 -11 -4 -6 3 4 6 14 8 22 5 11 -4 12 -8 4 -13 -9 -5 -9 -9 -1 -14 6 -4
11 -2 11 4 0 6 5 8 10 5 6 -4 8 -10 6 -14 -7 -11 12 -36 21 -27 4 5 2 11 -4
13 -10 4 -9 8 2 20 8 8 13 18 10 23 -3 5 3 8 14 7 33 -2 46 -45 26 -90 -4 -11
-3 -23 3 -29 8 -8 9 -4 6 13 -5 23 -5 23 10 5 9 -11 16 -15 16 -9 0 7 -4 14
-9 17 -5 4 -8 14 -6 24 2 9 4 19 4 22 1 3 6 -2 12 -10 10 -13 10 -13 6 1 -6
20 14 53 34 57 14 2 16 -6 14 -45 -3 -44 -2 -45 11 -22 13 23 15 22 18 -10 0
-8 12 -16 26 -18 18 -2 21 -1 10 6 -8 5 -18 7 -22 5 -11 -7 -10 8 2 26 8 12
10 12 16 -3 3 -9 11 -17 16 -17 7 0 7 4 1 13 -12 15 -13 47 -1 47 4 0 17 -9
27 -19 14 -14 22 -16 31 -8 10 9 11 8 6 -7 -7 -19 -6 -19 14 -1 15 13 23 16
31 8 8 -8 17 -6 32 8 33 31 43 22 12 -11 -16 -17 -25 -30 -21 -30 10 0 26 17
55 58 23 32 23 34 5 55 l-19 21 25 -16 c14 -9 24 -22 22 -29 -3 -10 0 -10 12
0 12 10 15 9 15 -6 1 -39 5 -52 13 -47 5 3 5 10 2 16 -5 7 -1 9 9 5 12 -4 14
-2 10 10 -4 9 -2 14 3 10 6 -3 16 -2 23 2 9 6 10 11 2 15 -6 4 -11 1 -11 -6 0
-9 -3 -9 -10 2 -5 8 -10 20 -10 25 0 6 4 4 9 -3 4 -8 11 -13 15 -13 18 3 23
-1 39 -29 10 -16 23 -30 28 -30 5 0 1 10 -11 22 -22 24 -22 39 0 46 7 3 10 0
6 -6 -3 -6 -3 -17 0 -26 5 -14 10 -13 35 5 16 11 29 16 29 10 0 -6 -9 -15 -20
-21 -22 -12 -27 -30 -8 -30 6 0 8 3 5 7 -12 11 30 33 50 26 12 -4 10 0 -7 15
-14 12 -20 21 -13 22 6 0 14 -4 18 -10 3 -5 13 -6 22 -3 9 4 14 2 10 -3 -3 -6
-2 -16 3 -24 8 -13 12 -12 24 5 18 24 20 35 5 35 -5 0 -7 5 -3 12 4 6 0 16 -9
23 -14 10 -13 12 4 23 16 10 20 10 18 0 -1 -7 -1 -22 0 -33 1 -17 3 -18 12 -5
9 12 10 11 6 -7 -3 -15 -1 -20 9 -16 7 2 11 10 8 17 -3 7 2 13 11 13 9 0 14
-6 11 -13 -3 -8 0 -11 8 -8 8 3 17 1 21 -5 3 -6 11 -11 16 -11 6 0 -3 11 -18
24 -27 24 -27 25 -5 23 12 -1 22 -7 22 -14 0 -9 6 -8 19 5 40 35 52 44 58 38
8 -8 -16 -34 -38 -41 -10 -4 -19 -11 -19 -16 0 -5 11 -2 25 7 21 14 28 14 43
3 15 -13 16 -12 4 3 -8 9 -11 21 -8 27 11 16 -5 43 -19 31 -9 -7 -12 -3 -12
18 0 16 6 29 14 30 7 1 20 3 28 4 8 1 12 5 9 10 -3 4 0 8 6 8 6 0 10 -8 8 -17
-2 -10 -11 -17 -20 -15 -9 1 -19 -2 -23 -8 -4 -6 1 -7 11 -3 13 5 15 3 9 -7
-5 -8 -2 -18 9 -26 11 -8 13 -14 7 -19 -6 -3 -11 -12 -11 -18 0 -7 5 -4 11 5
6 11 16 15 27 11 13 -4 13 -2 -3 10 -19 15 -19 17 -4 32 11 12 19 13 23 6 4
-6 2 -11 -3 -11 -6 0 -11 -4 -11 -10 0 -5 13 -1 30 8 16 9 30 21 30 26 0 5 -3
7 -6 3 -10 -10 -33 19 -38 48 -3 18 -1 25 7 22 7 -2 11 -12 9 -21 -2 -11 11
-23 40 -36 24 -11 39 -20 34 -20 -6 0 -5 -5 2 -12 9 -9 15 -9 25 1 10 10 8 11
-7 5 -14 -5 -17 -4 -12 5 5 8 0 14 -14 18 -17 4 -19 8 -8 15 8 6 5 7 -12 2
-22 -6 -23 -5 -11 10 8 9 9 16 3 16 -6 0 -12 -6 -15 -12 -2 -7 -8 -10 -12 -5
-5 4 1 17 13 30 25 26 23 61 -4 64 -14 2 -15 1 -4 -5 8 -4 16 -16 18 -27 2
-20 2 -20 -13 -1 -8 11 -17 17 -20 14 -3 -3 1 -13 10 -21 9 -10 11 -18 5 -22
-6 -3 -13 1 -16 9 -5 13 -9 13 -27 1 -18 -11 -26 -11 -45 -1 l-23 12 20 25
c11 13 20 19 21 12 0 -6 -5 -15 -11 -19 -8 -4 -6 -10 6 -17 14 -7 22 -5 32 9
24 31 36 57 25 50 -6 -3 -12 -1 -14 6 -3 7 -7 5 -11 -6 -4 -10 -3 -15 3 -11 6
3 10 2 10 -4 0 -22 -20 -19 -42 7 -13 15 -30 32 -38 37 -8 4 -4 -4 9 -18 14
-15 20 -27 14 -27 -5 0 -20 11 -33 25 -13 14 -18 25 -12 25 22 0 27 2 56 23
23 16 30 17 37 6 6 -10 9 -8 9 10 0 24 0 24 22 5 22 -19 22 -19 8 0 -14 18
-13 19 2 13 13 -4 15 -2 11 10 -5 12 -2 15 10 10 9 -3 17 -2 17 3 0 5 9 14 21
20 15 9 24 8 37 -2 15 -12 16 -11 3 5 -13 16 -12 19 7 24 12 3 19 9 16 14 -3
5 1 9 8 9 13 0 122 78 208 148 83 68 205 187 271 264 11 13 30 34 42 48 40 47
176 240 182 260 3 11 10 20 14 20 5 0 23 30 40 67 18 38 39 79 47 93 34 60
132 307 148 375 2 6 8 28 14 51 14 48 61 274 67 324 5 34 14 166 20 265 1 28
-3 56 -9 64 -8 11 -8 13 0 8 8 -4 10 13 8 56 -5 105 -16 232 -21 240 -2 4 -6
22 -8 40 -29 253 -155 592 -316 849 -240 384 -600 694 -1016 877 -82 36 -199
79 -233 86 -8 2 -27 8 -41 13 -24 10 -195 49 -249 58 -72 11 -100 15 -155 20
-64 7 -372 14 -377 9z m-789 -4415 c21 -10 42 -16 45 -12 4 3 4 -1 1 -10 -5
-14 -2 -16 16 -13 29 6 43 -3 29 -20 -8 -10 -7 -16 7 -24 10 -6 13 -11 7 -11
-18 0 -37 28 -28 41 5 8 3 9 -7 3 -21 -13 -40 -14 -33 -2 5 7 2 8 -6 3 -8 -5
-11 -4 -7 2 4 6 -1 17 -10 24 -10 8 -14 9 -10 2 5 -8 0 -11 -13 -10 -11 1 -19
7 -17 16 1 7 -4 15 -11 17 -7 1 -8 0 -2 -3 5 -2 7 -9 4 -14 -3 -6 -11 -5 -20
2 -9 7 -14 8 -14 1 0 -6 9 -13 19 -17 12 -4 18 -12 14 -20 -3 -8 -9 -12 -14
-9 -5 3 -7 10 -4 15 4 5 2 9 -4 9 -6 0 -9 -14 -7 -30 4 -39 -8 -47 -22 -15 -8
17 -8 26 -1 31 6 3 8 13 5 21 -7 18 11 43 31 43 7 0 31 -9 52 -20z m1909 -13
c13 -16 6 -47 -10 -47 -7 0 -7 5 0 13 9 10 5 13 -15 13 -14 -1 -28 4 -30 11
-3 8 5 10 24 7 15 -3 25 -3 22 1 -13 13 -48 13 -59 0 -6 -8 -18 -11 -26 -8 -8
3 -14 -1 -14 -8 0 -7 -3 -9 -6 -6 -10 10 -65 -33 -58 -45 5 -7 2 -8 -6 -3 -9
5 -11 4 -6 -3 4 -7 2 -12 -4 -12 -6 0 -8 -5 -4 -12 6 -9 9 -9 12 0 2 7 8 12
13 12 5 0 4 -9 -3 -20 -9 -14 -14 -16 -20 -7 -6 9 -8 8 -8 -3 0 -13 -1 -13
-10 0 -9 13 -10 13 -10 0 0 -13 -2 -13 -11 0 -9 13 -10 12 -5 -3 4 -12 2 -16
-6 -11 -6 4 -8 3 -5 -2 3 -6 2 -16 -4 -24 -5 -8 -9 -10 -9 -4 0 6 -7 11 -15
11 -8 0 -11 -5 -8 -11 4 -6 -2 -4 -12 4 -15 12 -17 12 -10 1 6 -10 4 -12 -5
-6 -8 5 -11 4 -6 -3 3 -6 2 -13 -4 -17 -6 -4 -8 -11 -5 -16 4 -5 1 -9 -5 -9
-7 0 -10 6 -7 13 3 8 -3 13 -18 13 -13 0 -21 -5 -18 -11 2 -7 -4 -18 -14 -26
-16 -13 -17 -12 -4 4 8 9 12 19 10 22 -10 10 -27 -33 -18 -46 7 -12 9 -12 9 0
0 11 3 11 17 0 14 -12 16 -12 8 0 -5 10 -4 12 4 7 9 -6 9 -11 0 -22 -7 -8 -15
-11 -18 -7 -3 4 -12 9 -18 11 -7 1 -19 3 -25 5 -8 1 -13 -8 -13 -22 0 -13 -7
-26 -15 -29 -13 -4 -13 -3 -2 10 10 13 10 17 0 21 -10 4 -10 8 2 16 17 12 10
14 -14 5 -9 -3 -13 -11 -10 -18 3 -6 -3 -2 -13 9 -18 20 -53 32 -53 19 0 -4 7
-15 16 -25 17 -19 10 -43 -9 -36 -7 2 -17 -3 -23 -11 -14 -19 -102 -24 -126
-7 -10 6 -15 15 -11 18 3 4 2 7 -4 7 -14 0 -34 -25 -26 -33 3 -4 2 -8 -3 -8
-39 -6 -53 -5 -48 3 3 4 10 6 15 3 5 -3 6 1 3 9 -3 9 -11 13 -17 9 -5 -3 -7
-1 -4 4 4 6 0 16 -8 23 -10 9 -15 9 -15 1 0 -6 -5 -10 -12 -9 -7 2 -17 -7 -23
-19 -5 -13 -12 -23 -15 -23 -10 0 -29 53 -24 64 3 6 -2 2 -10 -8 -10 -13 -16
-15 -16 -7 0 11 -3 11 -15 1 -8 -7 -13 -16 -10 -20 3 -5 1 -11 -4 -14 -14 -9
-34 22 -27 41 5 15 4 15 -9 -1 -10 -13 -15 -15 -15 -6 0 9 -5 7 -15 -6 -14
-18 -16 -18 -29 -1 -12 16 -14 16 -20 2 -4 -12 -10 -13 -24 -6 -11 6 -32 8
-48 5 -22 -3 -25 -2 -14 6 8 5 10 10 4 10 -6 0 -19 -10 -30 -22 -10 -12 -13
-18 -7 -14 9 5 11 1 7 -11 -5 -17 -5 -17 6 -1 17 27 33 22 20 -4 -10 -21 -9
-21 9 2 11 14 21 19 21 12 0 -7 5 -10 11 -6 8 4 7 9 -2 15 -8 5 -11 9 -6 9 4
0 16 -6 27 -13 17 -10 22 -9 30 3 9 14 11 13 14 -9 0 -5 5 -13 10 -18 5 -5 6
-3 2 5 -4 6 -2 12 4 12 21 0 4 -23 -18 -25 -12 -1 -25 -5 -29 -8 -3 -4 -11 0
-17 8 -9 12 -14 12 -36 -5 -15 -13 -18 -18 -7 -14 13 5 16 2 11 -11 -6 -14
-12 -11 -40 20 -19 20 -34 31 -34 24 0 -7 -3 -9 -6 -6 -4 4 -2 13 5 20 9 11 8
17 -4 27 -12 10 -15 10 -15 -1 0 -11 -2 -12 -9 -1 -6 10 -12 6 -22 -15 -14
-26 -39 -43 -39 -25 0 5 -7 9 -15 9 -8 0 -15 -5 -15 -10 0 -5 -7 -4 -16 4 -9
7 -25 14 -36 14 -11 1 -31 16 -45 33 -13 18 -29 30 -34 27 -5 -4 -9 -1 -9 6 0
7 -7 4 -15 -7 -11 -13 -13 -14 -9 -3 6 20 -9 26 -58 24 -20 -1 -35 2 -32 7 3
5 10 6 15 3 5 -3 6 1 3 9 -7 19 7 21 25 4 11 -11 13 -10 8 3 -3 9 -1 22 3 29
5 8 4 23 -1 34 -10 21 -10 21 5 2 9 -11 16 -14 16 -8 0 9 5 9 20 0 11 -7 20
-20 19 -28 -2 -28 1 -41 10 -36 4 3 7 16 6 29 -2 16 2 23 16 23 11 0 19 -4 19
-8 0 -4 -7 -8 -15 -8 -8 0 -15 -5 -15 -11 0 -5 5 -7 10 -4 6 4 9 1 8 -6 -2 -6
3 -14 10 -16 7 -3 10 1 6 10 -3 8 -1 18 5 22 7 4 8 0 4 -11 -4 -12 -3 -15 5
-10 7 4 12 2 12 -3 0 -6 -5 -11 -12 -11 -25 0 5 -14 32 -15 25 -1 28 3 27 24
-1 17 4 27 16 29 9 2 17 -1 17 -7 0 -6 -8 -8 -17 -4 -14 5 -15 3 -6 -7 6 -7 9
-20 5 -29 -5 -14 -4 -14 11 -2 9 7 17 19 17 27 0 7 4 15 8 18 4 2 8 -7 7 -21
0 -20 5 -27 23 -28 13 -1 25 2 28 7 3 5 14 -2 24 -14 11 -13 19 -18 20 -11 0
6 -4 15 -10 18 -13 8 -13 42 0 50 5 3 7 0 4 -9 -6 -15 21 -76 34 -76 8 0 41
36 39 42 -1 2 6 -5 16 -15 14 -16 17 -16 17 -4 0 26 20 30 43 9 12 -12 25 -21
29 -21 10 -1 55 42 52 49 -2 3 7 7 19 7 19 2 18 0 -7 -16 -16 -11 -23 -21 -18
-25 6 -3 13 -2 17 4 8 13 46 33 44 23 -4 -22 2 -43 12 -43 5 0 7 5 3 12 -4 6
-3 8 4 4 6 -3 13 -2 17 4 3 5 16 15 28 21 22 10 22 10 2 -8 -11 -10 -21 -26
-23 -36 -3 -15 0 -16 17 -5 11 6 19 14 18 17 -1 4 5 16 14 28 11 15 19 19 29
12 13 -7 12 -9 -2 -9 -10 0 -18 -4 -18 -10 0 -5 10 -9 23 -7 16 1 22 -3 21
-15 -1 -10 2 -18 7 -18 16 0 18 17 4 36 -17 23 -19 34 -5 34 6 0 9 -5 8 -11
-2 -6 3 -14 11 -17 9 -3 11 0 6 9 -5 8 1 5 13 -5 22 -19 32 -10 11 11 -8 8 -7
13 2 18 7 5 10 4 5 -3 -3 -6 -2 -13 4 -17 5 -3 10 1 10 9 0 9 5 16 11 16 5 0
7 6 3 13 -5 8 -2 8 9 -2 15 -12 21 -9 19 10 -1 3 6 6 14 6 12 0 12 -3 -1 -17
-8 -9 -15 -22 -15 -29 0 -7 9 -3 20 10 18 23 26 17 21 -15 -1 -5 5 -6 13 -3 9
4 18 2 21 -3 4 -6 11 -10 17 -10 6 0 5 6 -3 16 -11 13 -10 17 4 25 9 6 17 15
17 21 0 7 -4 7 -13 0 -8 -7 -18 -7 -27 -2 -8 5 -18 6 -24 3 -5 -3 -6 -1 -2 5
5 9 13 9 26 2 15 -8 21 -6 29 7 8 16 10 14 16 -9 10 -39 29 -52 46 -32 11 14
10 15 -5 12 -12 -2 -21 5 -27 20 -6 15 -5 21 1 17 6 -3 10 -14 10 -23 0 -13 2
-14 9 -4 7 11 10 11 22 0 21 -20 50 -22 43 -3 -3 8 -11 12 -17 8 -6 -4 -7 -1
-2 7 6 10 4 12 -7 7 -9 -3 -24 0 -33 7 -15 11 -14 12 12 12 15 -1 31 -5 35
-10 3 -5 16 -11 29 -13 18 -3 20 -1 9 12 -7 8 -16 13 -20 10 -4 -3 -10 1 -13
8 -3 9 2 13 16 12 12 -2 21 -8 20 -14 -2 -6 2 -11 8 -11 6 0 9 8 7 18 -3 11 0
19 8 19 8 0 14 -3 14 -7 0 -3 9 -6 21 -7 16 -2 18 1 10 11 -15 18 -1 29 17 13
13 -10 15 -9 10 4 -4 11 0 15 15 14 12 -1 28 5 36 12 7 8 20 12 27 9 7 -3 16
-1 19 5 4 5 11 7 16 4 5 -4 9 -1 9 5 0 6 5 8 10 5 6 -3 10 -1 10 4 0 6 6 11
13 11 7 0 28 8 47 19 36 19 55 16 78 -12z m-2013 13 c3 -5 1 -10 -4 -10 -6 0
-11 5 -11 10 0 6 2 10 4 10 3 0 8 -4 11 -10z m118 -47 c-5 -12 8 -18 30 -14 4
0 7 -4 7 -11 0 -6 3 -8 7 -5 3 4 14 0 24 -9 20 -18 41 -11 33 11 -4 8 -11 12
-18 8 -6 -4 -5 1 3 11 8 10 17 13 20 7 4 -5 18 -12 33 -15 14 -2 36 -9 47 -16
12 -6 26 -8 31 -5 5 3 11 1 15 -5 4 -6 12 -7 18 -3 7 4 7 1 -1 -10 -12 -14
-11 -16 7 -14 12 1 21 5 21 10 0 4 6 5 13 0 12 -8 32 -13 54 -15 10 -1 10 -4
0 -16 -10 -13 -9 -14 9 -8 36 11 38 -21 4 -56 -17 -17 -28 -33 -25 -37 4 -3
25 -6 48 -6 34 0 41 -4 39 -18 -3 -17 9 -23 22 -10 3 4 13 8 21 9 11 2 14 -4
9 -24 -3 -15 -6 -33 -6 -39 -1 -7 -8 -13 -16 -13 -8 0 -12 6 -9 15 11 27 -16
28 -39 2 -21 -25 -23 -25 -38 -8 -9 10 -14 25 -10 35 8 20 -14 49 -33 42 -16
-7 -17 6 0 23 10 11 9 12 -2 6 -9 -5 -12 -4 -7 3 3 5 0 9 -6 8 -25 -3 -37 -17
-31 -33 4 -11 3 -14 -6 -9 -7 5 -10 14 -7 22 3 9 0 11 -12 7 -11 -4 -8 2 8 18
15 13 17 17 5 9 -19 -14 -19 -14 -4 5 25 32 33 53 9 25 -12 -14 -18 -18 -14
-10 7 13 6 13 -11 0 -17 -13 -18 -13 -10 0 8 13 7 13 -10 0 -10 -8 -16 -10
-12 -3 8 13 -10 12 -33 -1 -8 -5 -1 6 15 25 l30 34 -29 -25 c-16 -14 -26 -20
-23 -13 8 13 -11 12 -32 -1 -9 -6 -12 -5 -8 0 3 6 -3 10 -13 11 -11 1 -22 -2
-25 -8 -3 -5 1 -6 9 -3 10 4 16 1 16 -7 0 -7 -3 -9 -7 -6 -3 4 -12 2 -19 -4
-10 -9 -15 -7 -20 5 -5 14 -8 14 -21 0 -9 -9 -24 -12 -37 -9 -17 5 -18 4 -6
-5 13 -10 12 -11 -4 -6 -11 4 -26 0 -38 -10 -10 -10 -20 -15 -23 -13 -2 3 8
16 24 30 31 26 78 38 65 16 -4 -6 1 -5 12 4 10 9 24 14 31 12 6 -2 10 4 9 14
-2 10 2 22 8 26 6 5 3 6 -9 2 -33 -11 -37 -11 -43 4 -2 8 0 11 6 7 6 -3 14 -1
18 6 4 7 4 10 -1 6 -4 -4 -14 -3 -21 3 -10 9 -15 7 -20 -5 -3 -9 -10 -16 -16
-16 -5 0 -6 4 -3 10 4 6 -1 7 -12 3 -10 -3 -15 -3 -11 2 4 4 3 14 -3 22 -8 9
-8 13 -1 13 6 0 14 -4 17 -10 3 -5 11 -10 17 -10 5 0 0 9 -13 19 -26 21 -47 8
-27 -16 7 -9 7 -13 0 -13 -17 0 -24 18 -13 38 11 20 52 25 44 5z m1844 -3 c4
-13 3 -13 -7 0 -9 12 -11 12 -8 1 6 -22 28 -25 29 -4 0 11 3 13 6 5 7 -17 75
-50 92 -44 9 3 11 0 6 -8 -4 -7 2 -24 14 -41 12 -16 17 -29 12 -29 -5 0 -13 5
-16 11 -5 7 -16 2 -31 -12 -13 -12 -24 -17 -24 -11 0 7 9 17 19 24 16 10 18
16 9 32 -6 12 -12 23 -14 24 -1 2 -12 -6 -24 -18 -11 -11 -25 -18 -29 -15 -5
2 -14 -2 -21 -10 -8 -9 -8 -15 -2 -15 11 0 10 -45 -1 -56 -3 -4 -18 -8 -32 -9
-19 -3 -25 1 -25 16 0 24 9 24 27 2 8 -10 12 -13 9 -7 -3 7 1 17 9 24 12 10
13 16 4 26 -6 8 -8 14 -3 14 5 0 3 4 -5 9 -25 16 -21 39 5 37 13 0 24 -3 24
-6 0 -3 9 -6 19 -6 11 0 17 4 15 8 -3 4 -12 8 -20 8 -8 0 -13 6 -11 13 1 7 -7
11 -20 9 -12 -2 -24 2 -28 8 -3 6 -11 8 -16 5 -5 -4 -9 -1 -9 5 0 6 -5 8 -11
5 -6 -4 -8 -13 -5 -20 2 -7 -3 -12 -12 -11 -10 1 -16 -7 -16 -19 0 -11 5 -19
12 -17 14 2 16 -14 3 -23 -6 -3 -15 3 -20 12 -10 15 -10 14 -7 -8 3 -17 -1
-26 -10 -26 -7 0 -11 3 -9 7 2 4 -2 7 -10 7 -11 0 -12 -4 -4 -14 14 -16 5 -17
-23 -2 -15 8 -19 8 -14 0 4 -6 2 -11 -4 -11 -6 0 -8 -5 -4 -11 5 -8 9 -8 14 1
4 7 13 9 19 6 6 -4 9 -12 5 -17 -3 -5 -9 -7 -14 -4 -4 3 -10 -2 -14 -10 -3 -8
2 -19 12 -24 9 -5 14 -13 10 -16 -4 -4 -14 0 -23 9 -9 9 -21 16 -28 16 -6 0
-2 7 9 16 10 8 13 12 5 8 -8 -4 -12 -3 -8 3 3 5 0 10 -7 10 -9 0 -12 -7 -8
-16 4 -13 1 -12 -16 3 -21 18 -21 18 -17 -3 2 -12 0 -19 -4 -17 -10 7 -7 -32
4 -41 4 -5 5 -2 0 6 -5 9 -4 12 2 8 6 -4 10 -1 9 6 -1 16 17 22 23 6 2 -7 -1
-9 -9 -4 -8 5 -11 4 -6 -3 3 -6 -7 -20 -23 -31 -37 -27 -38 -26 -38 5 0 27
-20 47 -36 37 -5 -3 -3 4 4 15 12 18 14 19 24 5 12 -16 40 -9 30 7 -8 12 17
27 42 25 14 -1 29 7 38 21 9 14 22 21 34 19 26 -5 53 35 40 58 -7 12 -4 19 13
29 13 7 26 12 30 13 3 0 9 3 12 6 12 12 49 4 53 -11z m113 0 c0 -5 -4 -10 -10
-10 -5 0 -10 5 -10 10 0 6 5 10 10 10 6 0 10 -4 10 -10z m-1979 -55 c16 -9 33
-13 38 -11 5 3 14 -1 21 -9 6 -7 19 -11 28 -9 12 4 11 1 -3 -7 -11 -7 -33 -14
-48 -14 -15 0 -32 -7 -36 -14 -7 -11 -14 -10 -37 4 -16 9 -21 14 -12 11 13 -4
15 -1 11 12 -6 15 -5 15 10 3 9 -7 14 -18 11 -25 -3 -6 3 0 14 13 13 16 21 20
26 12 9 -13 26 -5 25 12 0 8 -2 8 -6 -1 -4 -9 -8 -10 -18 -2 -9 8 -15 8 -20 0
-3 -5 -11 -10 -17 -10 -6 0 -5 7 3 17 10 11 10 14 2 9 -8 -4 -13 -2 -13 6 0 8
-3 9 -8 3 -10 -13 -32 -17 -32 -6 0 6 4 12 10 16 5 3 7 13 4 23 -5 16 -5 16 6
-1 6 -9 24 -24 41 -32z m1845 22 c4 -4 -1 -10 -10 -13 -14 -5 -15 -9 -4 -15 9
-6 9 -9 1 -9 -7 0 -1 -12 12 -26 25 -27 24 -50 -1 -40 -20 8 -44 -4 -38 -18 3
-7 -2 -19 -11 -26 -18 -15 -21 0 -3 18 9 9 9 12 -2 12 -13 0 -13 2 0 11 13 9
13 10 0 6 -8 -2 -14 -12 -12 -21 3 -15 0 -15 -17 -4 -25 15 -22 34 4 30 13 -3
16 1 12 12 -4 9 -3 15 1 14 4 -1 15 2 25 7 14 6 15 10 6 21 -6 8 -15 12 -18 9
-4 -2 -8 2 -8 11 0 10 7 12 20 8 15 -5 19 -3 14 9 -6 15 15 18 29 4z m-1893
-41 c7 4 3 -2 -8 -12 -28 -28 -53 -26 -51 6 1 14 5 31 10 39 7 11 12 8 23 -13
8 -16 19 -24 26 -20z m1932 34 c-3 -5 -12 -10 -18 -10 -7 0 -6 4 3 10 19 12
23 12 15 0z m-1702 -95 c-6 -17 12 -21 22 -5 4 7 11 7 18 2 7 -5 20 -8 29 -7
14 3 16 0 8 -15 -7 -13 -3 -23 15 -40 24 -22 27 -22 29 7 2 24 21 12 20 -12
-1 -14 3 -25 7 -25 5 0 9 5 9 10 0 6 5 10 10 10 19 0 10 -17 -16 -28 -18 -9
-23 -9 -18 -1 4 7 1 10 -7 7 -8 -3 -21 -2 -30 3 -11 6 -21 4 -29 -6 -14 -16
-30 -20 -30 -7 0 5 10 14 23 21 12 6 14 9 5 7 -10 -3 -20 -1 -24 5 -4 6 -11 6
-20 -2 -10 -8 -18 -9 -25 -2 -12 12 -1 45 13 37 5 -3 4 -13 -4 -22 -12 -15
-11 -16 4 -4 9 8 23 10 29 6 8 -5 10 -3 4 7 -6 11 -5 12 6 2 7 -7 18 -13 24
-13 5 0 2 5 -8 11 -13 8 -15 14 -8 23 8 9 7 13 -4 13 -8 0 -12 -4 -9 -9 3 -4
0 -8 -5 -8 -6 0 -11 6 -11 13 0 7 -3 8 -8 2 -9 -12 -36 -19 -28 -7 2 4 -4 9
-15 9 -10 1 -19 -3 -19 -8 0 -6 5 -7 11 -3 7 4 10 1 7 -7 -3 -8 -14 -13 -24
-11 -15 2 -16 1 -4 -7 8 -5 18 -7 22 -5 4 3 8 0 8 -5 0 -14 -10 -13 -40 4 -14
8 -19 14 -12 15 7 0 11 4 8 9 -12 18 6 39 29 36 13 -1 24 1 23 4 -1 15 3 22
12 16 5 -3 7 -12 3 -20z m384 3 c-3 -8 -6 -5 -6 6 -1 11 2 17 5 13 3 -3 4 -12
1 -19z m147 -10 c-3 -5 -10 -6 -15 -3 -5 4 -9 2 -9 -4 0 -5 6 -11 13 -14 6 -3
2 -4 -10 -4 -17 1 -20 5 -13 17 5 9 16 17 24 17 8 0 13 -4 10 -9z m416 -3 c0
-2 -9 -3 -19 -2 -11 0 -18 5 -15 9 4 6 34 0 34 -7z m50 11 c0 -3 -4 -8 -10
-11 -5 -3 -10 -1 -10 4 0 6 5 11 10 11 6 0 10 -2 10 -4z m190 -6 c0 -5 -2 -10
-4 -10 -3 0 -8 5 -11 10 -3 6 -1 10 4 10 6 0 11 -4 11 -10z m-561 -34 c-3 -3
-11 5 -18 17 -13 21 -12 21 5 5 10 -10 16 -20 13 -22z m267 5 c-4 -6 -13 -11
-19 -11 -8 0 -7 3 2 9 8 5 10 14 6 22 -6 11 -5 11 5 2 7 -6 9 -16 6 -22z
m-1015 4 c-1 -12 -41 -16 -41 -4 0 8 21 18 33 15 5 -1 8 -6 8 -11z m529 5 c0
-5 -4 -10 -10 -10 -5 0 -10 5 -10 10 0 6 5 10 10 10 6 0 10 -4 10 -10z m188
-15 c-3 -3 -9 2 -12 12 -6 14 -5 15 5 6 7 -7 10 -15 7 -18z m82 15 c0 -5 -4
-10 -10 -10 -5 0 -10 5 -10 10 0 6 5 10 10 10 6 0 10 -4 10 -10z m76 -28 c-4
-3 -14 2 -24 12 -16 18 -16 18 6 6 13 -6 21 -14 18 -18z m834 8 c0 -5 -7 -7
-15 -4 -8 4 -12 10 -9 15 6 11 24 2 24 -11z m-970 -14 c0 -3 -4 -8 -10 -11 -5
-3 -10 -1 -10 4 0 6 5 11 10 11 6 0 10 -2 10 -4z m924 -48 c-8 -13 -24 -10
-21 5 1 6 -6 12 -15 12 -21 0 -32 11 -23 24 4 7 17 3 35 -11 16 -12 27 -25 24
-30z"/>
<path d="M3305 510 c-3 -5 -12 -7 -19 -4 -7 3 -19 -2 -26 -10 -7 -9 -16 -14
-20 -11 -4 3 -13 -2 -20 -10 -10 -12 -16 -13 -29 -3 -14 11 -14 11 -3 -4 8
-10 9 -18 3 -22 -17 -11 -2 -32 24 -32 13 0 22 2 20 4 -11 11 17 40 35 37 11
-2 18 0 15 4 -2 5 5 20 16 35 11 14 18 26 15 26 -3 0 -7 -4 -11 -10z m-23 -19
c-8 -4 -13 -12 -13 -17 1 -5 -4 -9 -10 -9 -5 0 -19 -11 -30 -25 -15 -20 -18
-21 -12 -5 6 18 5 19 -13 5 -13 -10 -11 -6 5 12 13 15 27 25 31 23 4 -3 13 2
20 10 7 8 18 15 24 15 7 0 6 -4 -2 -9z"/>
<path d="M3127 418 c-15 -26 -20 -29 -28 -17 -8 11 -9 10 -7 -6 2 -15 -3 -20
-22 -20 -34 0 -50 -12 -43 -33 3 -9 -6 -4 -19 12 -15 18 -29 26 -37 22 -8 -6
-9 -12 -2 -20 6 -7 7 -17 3 -21 -4 -5 -2 -5 5 -1 6 3 16 -2 22 -11 6 -10 11
-13 11 -7 0 7 14 11 35 9 19 -1 33 0 30 3 -2 3 4 17 15 32 15 21 27 27 50 25
16 -1 27 1 25 6 -3 4 -1 10 4 13 5 3 7 15 4 27 -4 15 -8 17 -14 8 -4 -8 -4
-16 0 -19 5 -3 2 -11 -5 -18 -12 -11 -14 -9 -9 17 7 39 4 39 -18 -1z m-127
-73 c14 -19 14 -19 -2 -6 -10 7 -18 18 -18 24 0 6 1 8 3 6 1 -2 9 -13 17 -24z
m79 16 c2 -1 -2 -8 -9 -16 -10 -12 -16 -13 -26 -4 -8 6 -12 15 -9 19 4 7 13 7
44 1z"/>
<path d="M3046 348 c3 -5 10 -6 15 -3 13 9 11 12 -6 12 -8 0 -12 -4 -9 -9z"/>
<path d="M2005 400 c-4 -6 -8 -22 -9 -35 -2 -18 1 -22 15 -20 11 2 19 -1 19
-6 0 -6 5 -7 10 -4 6 4 26 -9 45 -28 19 -19 35 -30 35 -23 0 6 5 3 10 -6 7
-11 19 -15 36 -12 14 3 23 1 20 -4 -3 -5 1 -9 9 -9 8 0 15 5 15 10 0 5 6 4 14
-2 12 -10 18 -7 31 13 9 14 14 30 10 35 -3 7 0 8 9 5 9 -3 13 -11 9 -18 -3 -6
-2 -8 2 -3 5 4 16 0 25 -8 15 -13 19 -14 29 -1 8 10 9 16 1 21 -5 3 -10 3 -10
-1 0 -4 -8 0 -17 8 -10 9 -29 15 -43 14 -14 -1 -30 2 -37 7 -7 5 -18 5 -25 1
-17 -11 -88 -12 -94 -2 -3 5 -9 6 -14 3 -4 -3 -11 2 -14 11 -5 12 -10 13 -19
6 -17 -15 -33 -2 -32 27 0 26 -19 39 -30 21z m15 -20 c-11 -7 -11 -10 -2 -10
7 0 10 -5 6 -11 -4 -8 -9 -7 -15 2 -9 15 -3 29 14 29 7 0 6 -4 -3 -10z m95
-60 c0 -7 87 -4 91 2 3 4 16 1 29 -8 21 -13 23 -19 14 -36 -7 -14 -14 -17 -21
-10 -6 6 -17 8 -24 5 -8 -3 -14 0 -14 7 0 9 -4 9 -17 -1 -11 -10 -14 -10 -9
-1 4 6 2 12 -3 12 -6 0 -11 -6 -11 -12 0 -7 -5 -5 -11 5 -6 9 -14 15 -18 12
-5 -2 -16 4 -26 14 -16 19 -16 19 2 16 10 -2 18 -4 18 -5z m218 -23 c4 3 7 4
7 0 0 -17 -20 -14 -36 6 -19 22 -19 22 2 4 11 -9 24 -14 27 -10z"/>
<path d="M2206 311 c-3 -4 -21 -7 -41 -6 -19 2 -33 -1 -30 -4 2 -4 14 -7 27
-6 13 1 29 -2 36 -8 6 -5 12 -6 12 -2 0 4 8 1 17 -6 9 -8 14 -9 10 -2 -4 6 -3
13 3 15 6 2 1 9 -9 15 -11 7 -22 9 -25 4z m18 -9 c3 -5 -1 -9 -9 -9 -8 0 -12
4 -9 9 3 4 7 8 9 8 2 0 6 -4 9 -8z"/>
<path d="M2832 344 c-12 -23 -19 -44 -17 -48 3 -3 2 -3 -2 0 -4 3 -8 12 -8 20
0 7 -4 13 -10 13 -5 -1 -9 -5 -8 -9 4 -12 -25 -32 -36 -26 -6 4 -8 12 -5 20 3
9 -5 13 -25 13 -17 0 -28 -4 -26 -8 3 -4 -6 -14 -20 -23 -25 -16 -42 -7 -30
17 4 6 -1 3 -9 -7 -31 -39 -9 -57 31 -26 l26 21 26 -25 c26 -25 56 -22 56 5 0
7 6 14 14 17 8 3 11 1 8 -4 -3 -5 3 -20 12 -33 14 -18 20 -21 26 -11 5 9 4 11
-3 6 -7 -4 -12 -3 -12 3 0 18 19 22 28 4 6 -9 19 -17 30 -18 12 -1 18 3 15 8
-4 6 0 8 10 4 8 -3 21 0 27 8 6 8 18 11 26 8 19 -7 18 11 -1 27 -9 7 -14 19
-11 26 7 18 -5 26 -21 13 -12 -11 -18 -2 -14 24 2 14 -17 7 -23 -9 -8 -22 1
-33 24 -29 11 2 20 -1 20 -7 0 -5 -7 -8 -15 -5 -8 4 -17 2 -20 -3 -4 -7 -13
-7 -44 -1 -2 1 2 7 8 15 7 9 8 22 3 37 -9 23 -10 22 -30 -17z m19 -17 c-8 -11
-8 -17 1 -24 11 -8 33 -10 41 -3 10 8 49 4 59 -7 8 -10 7 -12 -4 -8 -9 4 -18
-1 -22 -12 -7 -17 -8 -17 -22 1 -13 18 -14 18 -14 2 0 -9 -4 -14 -10 -11 -5 3
-10 0 -10 -7 0 -7 -7 -2 -16 10 -12 17 -19 20 -29 12 -9 -8 -15 -8 -20 0 -4 6
-1 9 6 8 7 -2 13 2 14 9 0 15 27 54 33 48 3 -3 0 -11 -7 -18z m-116 -16 c-3
-5 4 -16 15 -24 17 -11 18 -16 7 -20 -9 -3 -25 6 -38 20 -13 15 -19 23 -12 19
6 -3 14 -2 18 4 3 5 8 10 11 10 3 0 3 -4 -1 -9z m-90 -31 c3 -5 1 -10 -4 -10
-6 0 -11 5 -11 10 0 6 2 10 4 10 3 0 8 -4 11 -10z"/>
<path d="M2844 293 c16 -20 36 -23 36 -6 0 4 -3 3 -7 0 -3 -4 -16 1 -27 10
-21 18 -21 18 -2 -4z"/>
<path d="M2906 287 c3 -10 9 -15 12 -12 3 3 0 11 -7 18 -10 9 -11 8 -5 -6z"/>
<path d="M2720 296 c0 -2 8 -10 18 -17 15 -13 16 -12 3 4 -13 16 -21 21 -21
13z"/>
<path d="M2436 318 c-6 -21 -7 -22 -20 -6 -12 17 -14 17 -30 -1 -19 -21 -13
-28 22 -25 12 0 22 -3 22 -9 0 -6 6 -2 14 9 14 18 15 18 21 2 4 -10 11 -18 17
-18 5 0 6 5 3 10 -3 6 -1 11 4 11 26 3 30 4 37 12 15 15 24 6 20 -18 -3 -13 0
-28 6 -31 6 -4 8 -2 5 3 -6 10 29 50 42 46 6 -2 2 29 -5 36 -2 2 -12 -4 -23
-13 -14 -13 -21 -14 -26 -6 -6 9 -9 9 -15 -1 -13 -20 -37 -19 -56 2 -22 25
-30 24 -38 -3z m34 -13 c11 -16 11 -18 0 -8 -11 10 -17 10 -28 0 -13 -10 -14
-9 -1 10 7 12 14 21 14 20 0 -1 7 -11 15 -22z m124 9 c3 -8 2 -12 -4 -9 -6 3
-10 10 -10 16 0 14 7 11 14 -7z m-180 -12 c2 -4 -4 -8 -14 -8 -10 0 -16 4 -14
8 3 4 9 8 14 8 5 0 11 -4 14 -8z m147 -15 c-10 -9 -11 -8 -5 6 3 10 9 15 12
12 3 -3 0 -11 -7 -18z"/>
<path d="M2866 322 c-3 -5 1 -9 9 -9 8 0 12 4 9 9 -3 4 -7 8 -9 8 -2 0 -6 -4
-9 -8z"/>
<path d="M1715 491 c19 -9 18 -12 -5 -15 -5 0 -10 -5 -11 -11 -1 -5 -5 -17 -9
-25 -7 -13 0 -15 40 -15 26 0 55 6 64 14 23 19 33 5 12 -18 -16 -18 -16 -19
14 -16 18 1 37 8 43 14 6 6 14 11 18 11 12 0 4 -47 -12 -66 -12 -16 -12 -17 1
-9 19 12 32 13 46 3 6 -5 16 2 24 17 7 13 17 22 22 19 4 -3 8 -1 8 5 0 5 -4
13 -10 16 -5 3 -10 1 -10 -6 0 -8 -4 -8 -15 1 -8 7 -13 16 -10 20 3 4 -2 10
-10 14 -20 7 -19 -9 3 -30 16 -17 16 -18 -1 -11 -13 5 -17 3 -14 -5 2 -7 11
-12 20 -12 9 1 14 -2 12 -6 -3 -5 -14 -8 -24 -7 -14 1 -18 8 -16 27 2 14 0 33
-5 41 -8 12 -12 11 -25 -6 -15 -20 -15 -20 -8 0 6 18 5 18 -10 6 -11 -9 -17
-10 -18 -2 -1 6 -2 17 -3 23 0 7 -12 12 -26 12 -14 0 -28 4 -31 9 -3 4 -21 10
-40 12 -26 4 -29 3 -14 -4z m65 -27 c0 4 5 4 10 1 21 -13 -9 -31 -46 -30 -27
0 -38 5 -40 18 -1 9 1 15 6 12 4 -3 13 2 20 10 11 14 15 14 31 -1 11 -10 19
-14 19 -10z m54 -42 c3 -5 -1 -9 -9 -9 -8 0 -12 4 -9 9 3 4 7 8 9 8 2 0 6 -4
9 -8z"/>
<path d="M1727 462 c-16 -17 -15 -18 18 -17 18 0 36 4 39 8 3 4 3 5 -1 2 -3
-3 -14 2 -23 10 -15 14 -18 13 -33 -3z m27 0 c3 -5 -1 -9 -9 -9 -8 0 -12 4 -9
9 3 4 7 8 9 8 2 0 6 -4 9 -8z"/>
<path d="M1946 308 c2 -4 14 -5 25 -3 13 3 19 0 16 -8 -3 -7 -9 -11 -15 -10
-5 1 -12 -3 -15 -11 -5 -11 2 -12 44 -7 4 1 6 11 5 24 -1 19 -7 23 -33 23 -17
0 -30 -4 -27 -8z"/>
<path d="M2032 281 c4 -13 18 -16 19 -4 0 4 -5 9 -11 12 -7 2 -11 -2 -8 -8z"/>
<path d="M3436 438 c3 -5 10 -6 15 -3 13 9 11 12 -6 12 -8 0 -12 -4 -9 -9z"/>
<path d="M3165 329 c-4 -6 -5 -12 -2 -15 2 -3 7 2 10 11 7 17 1 20 -8 4z"/>
<path d="M3374 415 c-18 -15 -18 -15 0 -8 14 5 17 3 11 -7 -5 -9 -4 -11 4 -6
6 4 9 11 6 16 -3 4 1 11 7 13 7 3 8 6 2 6 -5 1 -19 -6 -30 -14z"/>
<path d="M1353 643 c4 -3 1 -13 -6 -22 -11 -14 -10 -14 6 -2 20 15 22 31 5 31
-6 0 -8 -3 -5 -7z"/>
<path d="M3714 628 c-19 -23 -19 -23 2 -5 11 9 24 14 29 10 4 -5 5 -2 1 5 -9
16 -10 16 -32 -10z"/>
<path d="M1433 600 c0 -23 3 -28 9 -16 5 9 5 23 0 32 -6 12 -9 7 -9 -16z"/>
<path d="M3613 617 c-3 -6 -2 -7 4 -4 10 6 44 -27 37 -37 -2 -3 -1 -4 3 -1 4
3 7 14 8 24 1 13 -3 17 -13 13 -9 -3 -13 -1 -9 5 3 5 -1 10 -9 10 -8 0 -18 -5
-21 -10z"/>
<path d="M1397 604 c3 -7 9 -14 14 -14 14 0 10 17 -5 23 -10 4 -13 1 -9 -9z"/>
<path d="M1170 600 c0 -5 5 -10 11 -10 5 0 7 5 4 10 -3 6 -8 10 -11 10 -2 0
-4 -4 -4 -10z"/>
<path d="M1275 601 c-3 -5 -2 -12 3 -15 5 -3 9 1 9 9 0 17 -3 19 -12 6z"/>
<path d="M1312 594 c-7 -8 -8 -14 -3 -14 10 0 25 19 20 25 -2 1 -10 -3 -17
-11z"/>
<path d="M3522 590 c7 -11 17 -20 22 -20 5 0 1 9 -9 20 -10 11 -20 20 -22 20
-2 0 2 -9 9 -20z"/>
<path d="M3550 598 c0 -11 12 -10 30 2 12 7 10 9 -8 7 -12 0 -22 -5 -22 -9z"/>
<path d="M1374 592 c4 -7 1 -12 -8 -12 -19 0 -21 -16 -3 -26 6 -4 9 -4 5 1 -4
4 0 13 9 20 13 9 13 14 3 20 -9 5 -11 4 -6 -3z"/>
<path d="M3615 590 c5 -9 1 -10 -16 -6 -21 6 -22 6 -6 -5 13 -7 22 -8 29 -1 6
6 6 12 -3 17 -8 6 -10 4 -4 -5z"/>
<path d="M3795 583 c3 -3 0 -12 -7 -20 -6 -7 -8 -16 -4 -20 3 -3 6 -1 6 6 0 7
4 10 9 7 11 -7 9 21 -2 29 -4 3 -5 2 -2 -2z"/>
<path d="M1230 560 c0 -5 5 -10 11 -10 5 0 7 5 4 10 -3 6 -8 10 -11 10 -2 0
-4 -4 -4 -10z"/>
<path d="M1310 565 c0 -5 5 -17 10 -25 5 -8 10 -10 10 -5 0 6 -5 17 -10 25 -5
8 -10 11 -10 5z"/>
<path d="M1382 550 c-7 -12 -8 -20 -2 -20 5 0 10 5 10 11 0 5 5 7 12 3 7 -4 8
-3 4 4 -4 7 -3 12 3 12 5 0 12 -5 14 -10 3 -6 4 -5 3 2 -4 21 -30 20 -44 -2z"/>
<path d="M3630 560 c0 -6 7 -10 15 -10 8 0 15 2 15 4 0 2 -7 6 -15 10 -8 3
-15 1 -15 -4z"/>
<path d="M3720 560 c18 -12 30 -13 30 -2 0 4 -10 9 -22 9 -18 2 -20 0 -8 -7z"/>
<path d="M3850 561 c0 -6 4 -13 10 -16 6 -3 7 1 4 9 -7 18 -14 21 -14 7z"/>
<path d="M1160 535 c-7 -8 -16 -13 -19 -10 -4 2 -8 -3 -8 -11 0 -11 6 -9 24 8
13 12 23 23 23 25 0 7 -8 2 -20 -12z"/>
<path d="M1296 522 c0 -20 6 -27 23 -28 12 -1 26 7 32 17 6 13 6 19 -1 19 -5
0 -10 -6 -10 -13 0 -7 -8 -13 -19 -14 -13 -1 -17 3 -14 17 3 10 1 20 -4 23 -5
3 -8 -7 -7 -21z"/>
<path d="M1446 535 c4 -10 -1 -13 -21 -9 -15 3 -24 1 -21 -5 3 -5 3 -11 -1
-14 -5 -2 -1 -2 7 1 8 3 23 4 32 4 21 -1 31 25 13 32 -9 3 -12 0 -9 -9z"/>
<path d="M3673 538 c1 -8 -6 -12 -18 -10 -19 2 -19 2 -1 -9 14 -9 20 -8 27 2
12 19 11 29 -1 29 -5 0 -9 -6 -7 -12z"/>
<path d="M1219 538 c-8 -27 -5 -36 9 -30 10 4 12 7 4 10 -7 2 -10 8 -6 13 3 5
3 9 0 9 -3 0 -6 -1 -7 -2z"/>
<path d="M1258 528 c5 -5 16 -8 23 -6 8 3 3 7 -10 11 -17 4 -21 3 -13 -5z"/>
<path d="M3706 515 c4 -8 8 -15 10 -15 2 0 4 7 4 15 0 8 -4 15 -10 15 -5 0 -7
-7 -4 -15z"/>
<path d="M3753 518 c-3 -7 -1 -8 5 -4 7 4 12 1 12 -6 0 -9 3 -9 10 2 9 14 14
7 11 -13 -1 -5 4 -5 10 -2 8 5 8 10 0 18 -15 15 -40 17 -48 5z"/>
<path d="M1360 500 c-6 -11 -8 -20 -6 -20 3 0 10 9 16 20 6 11 8 20 6 20 -3 0
-10 -9 -16 -20z"/>
<path d="M3871 507 c-8 -10 -7 -14 2 -14 8 0 14 6 14 14 0 7 -1 13 -2 13 -2 0
-8 -6 -14 -13z"/>
<path d="M990 500 c0 -5 5 -10 11 -10 5 0 7 5 4 10 -3 6 -8 10 -11 10 -2 0 -4
-4 -4 -10z"/>
<path d="M3647 496 c5 -15 3 -17 -8 -12 -8 4 -2 -4 13 -17 15 -14 24 -28 20
-33 -4 -4 -1 -4 6 0 17 10 15 26 -4 26 -8 0 -13 4 -10 9 3 4 -1 17 -9 27 -15
19 -15 19 -8 0z"/>
<path d="M3679 488 c15 -21 31 -23 31 -6 0 6 -3 8 -7 5 -3 -4 -13 -1 -22 6
-14 11 -14 10 -2 -5z"/>
<path d="M1150 483 c0 -6 8 -17 18 -24 16 -13 16 -13 2 6 -8 11 -16 22 -17 24
-2 2 -3 0 -3 -6z"/>
<path d="M1190 478 c0 -4 4 -8 9 -8 6 0 12 4 15 8 3 5 -1 9 -9 9 -8 0 -15 -4
-15 -9z"/>
<path d="M1251 487 c2 -2 11 -8 20 -15 12 -9 16 -9 16 1 0 7 -9 14 -20 14 -11
1 -18 1 -16 0z"/>
<path d="M1375 479 c-11 -16 -1 -19 13 -3 7 8 8 14 3 14 -5 0 -13 -5 -16 -11z"/>
<path d="M3725 480 c3 -5 8 -10 11 -10 2 0 4 5 4 10 0 6 -5 10 -11 10 -5 0 -7
-4 -4 -10z"/>
<path d="M3762 478 c-15 -15 -15 -28 0 -28 6 0 8 3 5 7 -4 3 -2 12 4 20 14 16
7 17 -9 1z"/>
<path d="M1312 471 c-11 -7 -10 -9 3 -14 9 -4 14 -3 10 2 -3 5 1 12 7 14 7 3
9 6 3 6 -5 0 -16 -3 -23 -8z"/>
<path d="M1245 460 c-3 -5 -1 -18 5 -27 9 -15 10 -14 4 6 -4 17 -3 21 6 16 9
-5 11 -4 6 3 -9 15 -13 15 -21 2z"/>
<path d="M1345 459 c-4 -6 -5 -12 -2 -15 2 -3 7 2 10 11 7 17 1 20 -8 4z"/>
<path d="M1390 466 c0 -2 7 -6 15 -10 8 -3 15 -1 15 4 0 6 -7 10 -15 10 -8 0
-15 -2 -15 -4z"/>
<path d="M3805 459 c-4 -6 -5 -12 -2 -15 2 -3 7 2 10 11 7 17 1 20 -8 4z"/>
<path d="M3835 462 c3 -3 0 -10 -5 -17 -7 -8 -5 -12 5 -12 8 0 13 3 10 5 -3 3
0 10 5 17 7 8 5 12 -5 12 -8 0 -13 -3 -10 -5z"/>
<path d="M3711 444 c0 -11 3 -14 6 -6 3 7 2 16 -1 19 -3 4 -6 -2 -5 -13z"/>
<path d="M1296 435 c5 -11 2 -13 -10 -9 -9 3 -16 2 -16 -4 0 -17 35 -6 38 11
2 10 -1 17 -7 17 -6 0 -8 -7 -5 -15z"/>
<path d="M1360 438 c0 -3 9 -6 20 -5 11 1 20 5 20 9 0 3 -9 6 -20 5 -11 -1
-20 -5 -20 -9z"/>
<path d="M3731 434 c0 -11 3 -14 6 -6 3 7 2 16 -1 19 -3 4 -6 -2 -5 -13z"/>
<path d="M1406 423 c-6 -14 -5 -15 5 -6 7 7 10 15 7 18 -3 3 -9 -2 -12 -12z"/>
<path d="M1015 420 c3 -5 8 -10 11 -10 2 0 4 5 4 10 0 6 -5 10 -11 10 -5 0 -7
-4 -4 -10z"/>
<path d="M1120 420 c-9 -6 -10 -10 -3 -10 6 0 15 5 18 10 8 12 4 12 -15 0z"/>
<path d="M1194 411 c13 -12 18 -13 28 -2 11 10 9 11 -6 5 -12 -5 -17 -4 -13 3
3 5 -1 10 -9 10 -13 0 -13 -2 0 -16z"/>
<path d="M1336 423 c-10 -10 -7 -33 4 -33 5 0 7 7 4 15 -5 11 -2 13 10 9 9 -3
16 -4 16 -1 0 8 -28 16 -34 10z"/>
<path d="M3699 413 c14 -28 14 -36 -1 -27 -7 4 -8 3 -4 -4 9 -15 33 -5 33 13
0 8 -3 13 -5 10 -3 -3 -11 3 -19 13 -13 15 -13 15 -4 -5z"/>
<path d="M3794 414 c4 -9 2 -22 -4 -29 -7 -8 -6 -12 3 -12 8 0 13 12 13 29 0
15 -4 28 -9 28 -5 0 -6 -7 -3 -16z"/>
<path d="M1380 410 c0 -5 0 -13 1 -17 0 -5 -10 -11 -23 -15 l-23 -7 24 2 c17
1 25 9 27 25 2 12 2 22 -1 22 -3 0 -5 -4 -5 -10z"/>
<path d="M3896 407 c3 -10 9 -15 12 -12 3 3 0 11 -7 18 -10 9 -11 8 -5 -6z"/>
<path d="M1151 407 c2 -1 13 -9 24 -17 19 -14 19 -14 6 3 -7 9 -18 17 -24 17
-6 0 -8 -1 -6 -3z"/>
<path d="M1300 400 c-9 -6 -10 -10 -3 -10 6 0 15 5 18 10 8 12 4 12 -15 0z"/>
<path d="M3620 397 c0 -9 -6 -16 -12 -14 -7 1 -14 -8 -16 -21 -2 -13 -8 -20
-14 -16 -7 4 -8 2 -4 -5 10 -16 26 -4 26 20 0 11 5 17 10 14 11 -7 26 22 16
32 -3 4 -6 -1 -6 -10z"/>
<path d="M3970 400 c0 -5 5 -10 11 -10 5 0 7 5 4 10 -3 6 -8 10 -11 10 -2 0
-4 -4 -4 -10z"/>
<path d="M1233 385 c0 -8 4 -12 9 -9 5 3 6 10 3 15 -9 13 -12 11 -12 -6z"/>
<path d="M3636 373 c-4 -9 -3 -20 1 -24 4 -4 9 3 9 17 2 28 -1 31 -10 7z"/>
<path d="M1275 370 c-4 -6 -10 -8 -15 -5 -5 3 -11 1 -14 -4 -8 -13 22 -7 36 7
7 7 9 12 6 12 -4 0 -10 -5 -13 -10z"/>
<path d="M1310 373 c5 -2 8 -9 4 -14 -3 -5 0 -9 6 -9 15 0 7 23 -8 26 -7 1 -8
0 -2 -3z"/>
<path d="M3757 373 c-10 -9 -9 -23 1 -23 5 0 9 7 9 15 0 17 -1 18 -10 8z"/>
<path d="M3875 370 c-4 -6 -11 -7 -17 -4 -7 4 -8 2 -4 -5 6 -9 11 -9 22 0 14
11 18 19 10 19 -3 0 -8 -5 -11 -10z"/>
<path d="M1155 360 c-3 -5 -1 -10 4 -10 6 0 11 5 11 10 0 6 -2 10 -4 10 -3 0
-8 -4 -11 -10z"/>
<path d="M1395 360 c3 -5 8 -10 11 -10 2 0 4 5 4 10 0 6 -5 10 -11 10 -5 0 -7
-4 -4 -10z"/>
<path d="M3660 359 c0 -9 31 -21 38 -14 3 3 0 5 -7 5 -7 0 -10 4 -7 8 3 5 -1
9 -9 9 -8 0 -15 -4 -15 -8z"/>
<path d="M1350 350 c-9 -6 -10 -10 -3 -10 6 0 15 5 18 10 8 12 4 12 -15 0z"/>
<path d="M1425 347 c-15 -12 -16 -15 -4 -22 8 -5 10 -4 6 0 -4 5 3 15 15 22
13 7 18 12 12 13 -5 0 -18 -6 -29 -13z"/>
<path d="M1036 333 c-6 -14 -5 -15 5 -6 7 7 10 15 7 18 -3 3 -9 -2 -12 -12z"/>
<path d="M1227 339 c7 -9 10 -19 6 -22 -3 -4 -1 -7 5 -7 17 0 15 16 -5 31 -16
12 -17 12 -6 -2z"/>
<path d="M1374 338 c-5 -7 -3 -8 6 -3 9 6 12 4 8 -7 -4 -8 0 -15 7 -15 10 0
11 5 4 19 -11 21 -15 22 -25 6z"/>
<path d="M3613 343 c4 -6 2 -13 -5 -15 -8 -3 -6 -6 4 -10 17 -7 19 15 3 29 -4
4 -5 3 -2 -4z"/>
<path d="M3713 335 c0 -8 4 -12 9 -9 5 3 6 10 3 15 -9 13 -12 11 -12 -6z"/>
<path d="M3531 324 c0 -11 3 -14 6 -6 3 7 2 16 -1 19 -3 4 -6 -2 -5 -13z"/>
<path d="M3553 312 c-1 -22 0 -24 9 -8 6 10 6 22 2 26 -5 5 -10 -3 -11 -18z"/>
<path d="M1333 313 c0 -9 4 -10 14 -2 7 6 13 12 13 14 0 1 -6 2 -13 2 -8 0
-14 -6 -14 -14z"/>
<path d="M1611 299 c-19 -16 -32 -32 -28 -35 4 -4 7 -1 7 6 0 7 3 11 6 7 3 -3
17 5 31 19 35 36 25 38 -16 3z"/>
<path d="M3680 326 c0 -2 8 -10 18 -17 15 -13 16 -12 3 4 -13 16 -21 21 -21
13z"/>
<path d="M3736 313 c-6 -14 -5 -15 5 -6 7 7 10 15 7 18 -3 3 -9 -2 -12 -12z"/>
<path d="M1273 305 c0 -8 4 -15 9 -15 4 0 8 4 8 9 0 6 -4 12 -8 15 -5 3 -9 -1
-9 -9z"/>
<path d="M3836 307 c3 -10 9 -15 12 -12 3 3 0 11 -7 18 -10 9 -11 8 -5 -6z"/>
<path d="M3456 302 c-2 -4 0 -14 6 -22 8 -12 9 -11 4 4 -5 13 -2 17 9 12 8 -3
15 -1 15 4 0 12 -27 13 -34 2z"/>
<path d="M1375 290 c-4 -6 -11 -7 -17 -4 -7 4 -8 2 -4 -5 6 -9 11 -9 22 0 14
11 18 19 10 19 -3 0 -8 -5 -11 -10z"/>
<path d="M1419 288 c15 -21 31 -23 31 -6 0 6 -3 8 -7 5 -3 -4 -13 -1 -22 6
-14 11 -14 10 -2 -5z"/>
<path d="M1642 280 c0 -14 2 -19 5 -12 2 6 2 18 0 25 -3 6 -5 1 -5 -13z"/>
<path d="M1690 293 c5 -2 8 -9 4 -14 -3 -5 0 -9 6 -9 15 0 7 23 -8 26 -7 1 -8
0 -2 -3z"/>
<path d="M3503 290 c2 -8 10 -15 17 -15 7 0 15 7 17 15 4 13 3 13 -6 0 -10
-13 -12 -13 -22 0 -9 13 -10 13 -6 0z"/>
<path d="M1485 280 c-3 -6 1 -7 9 -4 18 7 21 14 7 14 -6 0 -13 -4 -16 -10z"/>
<path d="M3335 280 c-3 -5 -2 -10 4 -10 5 0 13 5 16 10 3 6 2 10 -4 10 -5 0
-13 -4 -16 -10z"/>
<path d="M3370 282 c0 -5 7 -9 15 -9 8 0 12 4 9 9 -3 4 -9 8 -15 8 -5 0 -9 -4
-9 -8z"/>
<path d="M3430 281 c0 -5 7 -15 17 -22 15 -13 15 -12 4 9 -12 23 -21 28 -21
13z"/>
<path d="M3633 273 c0 -9 4 -10 14 -2 7 6 13 12 13 14 0 1 -6 2 -13 2 -8 0
-14 -6 -14 -14z"/>
<path d="M1674 263 c6 -18 4 -22 -8 -17 -9 3 -16 2 -16 -3 0 -5 11 -9 24 -9
22 0 23 3 14 21 -16 30 -21 33 -14 8z"/>
<path d="M1755 270 c3 -5 8 -10 11 -10 2 0 4 5 4 10 0 6 -5 10 -11 10 -5 0 -7
-4 -4 -10z"/>
<path d="M1556 253 c-6 -14 -5 -15 5 -6 7 7 10 15 7 18 -3 3 -9 -2 -12 -12z"/>
<path d="M1616 262 c-2 -4 -1 -14 3 -21 6 -9 11 -10 15 -2 4 6 2 11 -4 11 -6
0 -8 5 -5 10 3 6 4 10 1 10 -3 0 -7 -4 -10 -8z"/>
<path d="M3315 260 c3 -6 1 -10 -4 -10 -6 0 -11 -4 -11 -8 0 -5 7 -9 15 -9 8
0 12 4 9 8 -2 4 1 9 8 11 7 3 5 7 -6 11 -10 4 -15 3 -11 -3z"/>
<path d="M3403 253 c-3 -10 -8 -21 -10 -25 -2 -4 1 -10 7 -13 6 -4 10 -3 9 2
-4 24 2 43 13 37 7 -4 8 -3 4 4 -10 16 -16 15 -23 -5z"/>
<path d="M3710 265 c0 -7 30 -13 34 -7 3 4 -4 9 -15 9 -10 1 -19 0 -19 -2z"/>
<path d="M1455 249 c-4 -6 -5 -12 -2 -15 2 -3 7 2 10 11 7 17 1 20 -8 4z"/>
<path d="M1845 249 c-11 -16 -1 -19 13 -3 7 8 8 14 3 14 -5 0 -13 -5 -16 -11z"/>
<path d="M2975 229 c-9 -17 -14 -33 -12 -36 3 -2 11 10 18 26 8 17 17 31 21
31 14 0 9 -23 -9 -44 -16 -19 -15 -19 6 1 15 13 21 28 18 37 -10 25 -25 19
-42 -15z"/>
<path d="M3085 250 c-3 -5 0 -7 9 -4 9 3 17 -3 21 -16 4 -12 9 -19 12 -17 7 7
-16 47 -27 47 -5 0 -12 -4 -15 -10z"/>
<path d="M3350 256 c0 -2 7 -9 15 -16 13 -11 14 -10 9 4 -5 14 -24 23 -24 12z"/>
<path d="M2674 216 c1 -49 13 -54 13 -6 0 22 -3 40 -7 40 -4 0 -6 -15 -6 -34z"/>
<path d="M3205 240 c-3 -6 1 -7 9 -4 18 7 21 14 7 14 -6 0 -13 -4 -16 -10z"/>
<path d="M3245 240 c3 -5 8 -10 11 -10 2 0 4 5 4 10 0 6 -5 10 -11 10 -5 0 -7
-4 -4 -10z"/>
<path d="M1740 236 c0 -2 7 -7 16 -10 8 -3 12 -2 9 4 -6 10 -25 14 -25 6z"/>
<path d="M1520 220 c-9 -6 -10 -10 -3 -10 6 0 15 5 18 10 8 12 4 12 -15 0z"/>
<path d="M1710 220 c0 -5 5 -10 10 -10 6 0 10 5 10 10 0 6 -4 10 -10 10 -5 0
-10 -4 -10 -10z"/>
<path d="M1780 226 c0 -2 7 -6 15 -10 8 -3 15 -1 15 4 0 6 -7 10 -15 10 -8 0
-15 -2 -15 -4z"/>
<path d="M1899 228 c-6 -21 -5 -37 2 -32 5 3 7 9 4 14 -3 5 5 11 17 13 l23 4
-22 2 c-13 0 -23 0 -24 -1z"/>
<path d="M1997 216 c-4 -10 -3 -15 3 -11 6 3 10 1 10 -6 0 -7 3 -10 6 -6 3 3
2 13 -4 22 -8 16 -9 16 -15 1z"/>
<path d="M2107 224 c-10 -11 -8 -34 3 -34 5 0 7 7 4 15 -7 17 11 21 19 5 3 -6
4 -5 3 2 -3 14 -20 21 -29 12z"/>
<path d="M2790 225 c0 -15 18 -40 24 -34 3 3 -1 14 -9 25 -8 10 -14 15 -15 9z"/>
<path d="M3059 227 c-4 -13 -6 -49 -3 -39 3 6 11 9 17 5 7 -4 7 0 -1 10 -12
14 -11 16 8 14 15 -1 20 -6 17 -19 -3 -10 -1 -15 4 -12 17 10 5 37 -18 40 -13
2 -23 3 -24 1z"/>
<path d="M3216 221 c-3 -5 2 -15 12 -22 15 -13 16 -12 4 3 -10 13 -10 17 0 21
9 4 9 6 1 6 -6 1 -14 -3 -17 -8z"/>
<path d="M3270 220 c0 -5 5 -10 10 -10 6 0 10 5 10 10 0 6 -4 10 -10 10 -5 0
-10 -4 -10 -10z"/>
<path d="M3596 218 c3 -4 11 -5 19 -1 21 7 19 12 -4 10 -11 0 -18 -5 -15 -9z"/>
<path d="M1857 209 c7 -7 15 -10 18 -7 3 3 -2 9 -12 12 -14 6 -15 5 -6 -5z"/>
<path d="M3151 211 c-8 -5 -9 -11 -3 -15 5 -3 12 1 16 9 6 17 6 18 -13 6z"/>
<path d="M3181 197 c-13 -21 -12 -21 5 -5 10 10 16 20 13 22 -3 3 -11 -5 -18
-17z"/>
<path d="M3356 207 c3 -10 9 -15 12 -12 3 3 0 11 -7 18 -10 9 -11 8 -5 -6z"/>
<path d="M1585 200 c-3 -6 1 -7 9 -4 18 7 21 14 7 14 -6 0 -13 -4 -16 -10z"/>
<path d="M1657 195 c-4 -8 -3 -16 1 -19 4 -3 9 4 9 15 2 23 -3 25 -10 4z"/>
<path d="M1765 200 c-3 -6 1 -7 9 -4 18 7 21 14 7 14 -6 0 -13 -4 -16 -10z"/>
<path d="M1819 193 c-13 -16 -12 -17 4 -4 16 13 21 21 13 21 -2 0 -10 -8 -17
-17z"/>
<path d="M2865 200 c-3 -5 -2 -10 4 -10 5 0 13 5 16 10 3 6 2 10 -4 10 -5 0
-13 -4 -16 -10z"/>
<path d="M3025 200 c3 -5 8 -10 11 -10 2 0 4 5 4 10 0 6 -5 10 -11 10 -5 0 -7
-4 -4 -10z"/>
<path d="M1840 180 c-9 -6 -10 -10 -3 -10 6 0 15 5 18 10 8 12 4 12 -15 0z"/>
<path d="M1976 181 c-3 -5 2 -15 12 -22 15 -12 16 -12 5 2 -7 9 -10 19 -6 22
3 4 4 7 0 7 -3 0 -8 -4 -11 -9z"/>
<path d="M2055 183 c3 -3 0 -11 -5 -18 -7 -8 -5 -12 4 -12 14 0 16 22 3 32 -4
3 -5 2 -2 -2z"/>
<path d="M2174 182 c3 -5 0 -13 -6 -15 -9 -4 -10 -6 -1 -6 17 -1 25 16 12 25
-7 4 -9 3 -5 -4z"/>
<path d="M2210 168 c-10 -21 -10 -21 3 -6 8 10 18 14 22 10 5 -4 5 -1 1 6 -10
17 -14 15 -26 -10z"/>
<path d="M2835 181 c3 -6 -3 -14 -12 -20 -10 -6 -13 -11 -7 -11 12 0 34 20 34
32 0 4 -5 8 -11 8 -5 0 -8 -4 -4 -9z"/>
<path d="M2935 181 c-9 -15 13 -23 32 -11 15 9 14 10 -6 4 -16 -4 -21 -3 -17
5 4 6 5 11 2 11 -3 0 -7 -4 -11 -9z"/>
<path d="M3119 173 c-13 -16 -12 -17 4 -4 16 13 21 21 13 21 -2 0 -10 -8 -17
-17z"/>
<path d="M3196 173 c-6 -14 -5 -15 5 -6 7 7 10 15 7 18 -3 3 -9 -2 -12 -12z"/>
<path d="M3436 182 c-3 -5 1 -9 9 -9 8 0 12 4 9 9 -3 4 -7 8 -9 8 -2 0 -6 -4
-9 -8z"/>
<path d="M1544 158 l-19 -23 23 19 c12 11 22 21 22 23 0 8 -8 2 -26 -19z"/>
<path d="M1890 176 c0 -2 8 -10 18 -17 15 -13 16 -12 3 4 -13 16 -21 21 -21
13z"/>
<path d="M1935 169 c-4 -6 -5 -12 -2 -15 2 -3 7 2 10 11 7 17 1 20 -8 4z"/>
<path d="M2514 156 c0 -12 6 -23 13 -23 9 0 10 4 3 12 -5 7 -7 14 -4 17 3 3 1
8 -3 11 -5 3 -9 -5 -9 -17z"/>
<path d="M2330 158 c0 -6 3 -8 7 -5 3 4 16 -1 27 -10 21 -18 21 -18 2 5 -21
24 -36 29 -36 10z"/>
<path d="M2478 163 c7 -3 16 -2 19 1 4 3 -2 6 -13 5 -11 0 -14 -3 -6 -6z"/>
<path d="M2710 162 c0 -5 7 -9 15 -9 8 0 12 4 9 9 -7 10 -24 10 -24 0z"/>
<path d="M2866 159 c2 -4 13 -7 24 -6 23 2 17 10 -10 12 -10 1 -17 -2 -14 -6z"/>
<path d="M3000 160 c-9 -6 -10 -10 -3 -10 6 0 15 5 18 10 8 12 4 12 -15 0z"/>
<path d="M3056 158 c3 -5 10 -6 15 -3 13 9 11 12 -6 12 -8 0 -12 -4 -9 -9z"/>
<path d="M3275 161 c-3 -5 -2 -12 3 -15 5 -3 9 1 9 9 0 17 -3 19 -12 6z"/>
<path d="M2027 139 c7 -7 15 -10 18 -7 3 3 -2 9 -12 12 -14 6 -15 5 -6 -5z"/>
<path d="M2470 146 c0 -2 7 -7 16 -10 8 -3 12 -2 9 4 -6 10 -25 14 -25 6z"/>
<path d="M2556 127 c3 -10 9 -15 12 -12 3 3 0 11 -7 18 -10 9 -11 8 -5 -6z"/>
<path d="M2590 122 c0 -5 7 -9 15 -9 8 0 12 4 9 9 -7 10 -24 10 -24 0z"/>
<path d="M2176 93 c-6 -14 -5 -15 5 -6 7 7 10 15 7 18 -3 3 -9 -2 -12 -12z"/>
<path d="M2495 100 c-3 -5 -1 -10 4 -10 6 0 11 5 11 10 0 6 -2 10 -4 10 -3 0
-8 -4 -11 -10z"/>
</g>
</svg>
